# xmcd
#
# Track frame offsets:
#	150
#	14545
#	24137
#	40060
#	55217
#	67110
#	77730
#	91910
#	109152
#	126917
#	142745
#	155152
#	167810
#	180687
#	191212
#	204372
#	221452
#	233120
#	247532
#	262045
#
# Disc length: 3682 seconds
#
# Revision: 2
# Processed by: cddbd v1.5.2PL0 Copyright (c) Steve Scherf et al.
# Submitted via: audiograbber 1.83.01
#
DISCID=100e6014
DTITLE=Foster and Allen - Sing Country
DYEAR=1999
DGENRE=Country
TTITLE0=Don't Let The Stars Get In Your Eyes
TTITLE1=From A Jack To A King
TTITLE2=Release Me
TTITLE3=Sweet Dreams
TTITLE4=Katie Daly
TTITLE5=Sea Of Heartbreak
TTITLE6=Take These Chains from My Heart
TTITLE7=Jim Reeves Medley (I'D FIGHT THE WORLD, NOT UNTIL THE NEXT TIME, THERE'
TTITLE7=S A HEARTACHE FOLLOWING ME)
TTITLE8=You're As Welcome As The Flowers In May
TTITLE9=I Still Miss Someone
TTITLE10=Buck Owens Medley  (LOVE'S GONNA LIVE HERE, I DON'T CARE, MY HEART SKI
TTITLE10=PS A BEAT)
TTITLE11=The Wabash Cannonball
TTITLE12=Wolverton Mountain
TTITLE13=My Grandfather's Clock
TTITLE14=I Can't Stop Loving You
TTITLE15=Out West Medley (GHOST RIDERS IN THE SKY, BONANZA, THE LONE RANGER, WR
TTITLE15=ECK OF THE 97, CASEY JONES, T
TTITLE16=I Love You Because
TTITLE17=Have I Told You Lately That I Love You
TTITLE18=Still
TTITLE19=Do What You Do Do Well
EXTD=YEAR: 1999
EXTT0=
EXTT1=
EXTT2=
EXTT3=
EXTT4=
EXTT5=
EXTT6=
EXTT7=
EXTT8=
EXTT9=
EXTT10=
EXTT11=
EXTT12=
EXTT13=
EXTT14=
EXTT15=
EXTT16=
EXTT17=
EXTT18=
EXTT19=
PLAYORDER=
